# xmcd CD database file
#
# Track frame offsets:
#	150
#	27320
#	51485
#	64292
#	90625
#	106705
#	133457
#	145217
#	157907
#	174007
#	187112
#	198207
#	211475
#	229512
#	251050
#	268957
#	284352
#	306845
#
# Disc length: 4299 seconds
#
# Revision: 6
# Processed by: cddbd v1.5.2PL0 Copyright (c) Steve Scherf et al.
# Submitted via: CDex 1.51
#
DISCID=0d10c912
DTITLE=Various Artist - The No. 1 Jazz Album [CD2]
DYEAR=1997
DGENRE=Jazz
TTITLE0=Weather Report/Birdland
TTITLE1=Incognito/Don't You  Worry 'Bout A Thing
TTITLE2=Astrud Gilberto/Bossa Na Praia
TTITLE3=Stan Getz/Desafinado
TTITLE4=Ella Fitzgerald/Ev'ry Time We Say Goodbye
TTITLE5=Jimmy Smith/Walk On The Wild Side
TTITLE6=Nina Simone/I Put A Spell On You
TTITLE7=Erroll Garner/Misty
TTITLE8=Billie Holiday/A Fine Romance
TTITLE9=Sarah Vaughan/My Ship
TTITLE10=Dinah Washington and Brook Benton/A Rockin' Good Way
TTITLE11=Earl Grant/House Of Bamboo
TTITLE12=Roy Ayers and Ubiquity/Everybody Loves The Sunshine
TTITLE13=Norman Brown/That's The Way Love Goes
TTITLE14=Spyro Gyra/Morning Dance
TTITLE15=George Benson/Walk On By
TTITLE16=Loius Armstrong and Ella Fitzgerald/Summertime
TTITLE17=Nat King Cole/Unforgettable
EXTD=YEAR: 1997
EXTT0=
EXTT1=
EXTT2=
EXTT3=
EXTT4=
EXTT5=
EXTT6=
EXTT7=
EXTT8=
EXTT9=
EXTT10=
EXTT11=
EXTT12=
EXTT13=
EXTT14=
EXTT15=
EXTT16=
EXTT17=
PLAYORDER=
